<?xml version="1.0" standalone="no"?>
<!DOCTYPE svg PUBLIC "-//W3C//DTD SVG 20010904//EN"
 "http://www.w3.org/TR/2001/REC-SVG-20010904/DTD/svg10.dtd">
<svg version="1.0" xmlns="http://www.w3.org/2000/svg"
 width="2251.000000pt" height="2251.000000pt" viewBox="0 0 2251.000000 2251.000000"
 preserveAspectRatio="xMidYMid meet">
<metadata>
Created by potrace 1.11, written by Peter Selinger 2001-2013
</metadata>
<g transform="translate(0.000000,2251.000000) scale(0.100000,-0.100000)"
fill="#000000" stroke="none">
<path d="M3450 11259 c-773 -1772 -1406 -3225 -1408 -3230 -2 -5 447 -9 1095
-9 l1099 0 198 543 c110 298 212 577 228 620 l30 77 1368 0 1368 0 30 -77 c16
-43 121 -322 233 -620 l204 -543 1133 0 c622 0 1132 1 1132 3 0 1 -634 1453
-1408 3227 l-1408 3225 -1245 2 -1244 2 -1405 -3220z m3030 496 c222 -594 405
-1086 407 -1092 4 -10 -165 -13 -826 -13 -457 0 -831 2 -831 4 0 2 183 487
406 1077 224 591 411 1087 417 1103 7 20 12 25 17 15 4 -8 189 -500 410 -1094z"/>
<path d="M11080 11250 l0 -3230 1005 0 1005 0 2 1779 3 1779 459 -1136 c253
-625 576 -1426 719 -1779 l260 -643 796 0 796 0 705 1737 c388 955 713 1753
722 1772 15 34 16 -73 17 -1737 l1 -1772 1028 2 1027 3 3 3228 2 3227 -1267
-2 -1266 -3 -871 -2152 c-479 -1183 -874 -2149 -877 -2145 -4 4 -395 973 -870
2155 l-864 2147 -1267 0 -1268 0 0 -3230z"/>
</g>
</svg>
