<?xml version="1.0" encoding="UTF-8" standalone="no"?>
<svg width="24px" height="24px" viewBox="0 0 24 24" version="1.1" xmlns="http://www.w3.org/2000/svg" xmlns:xlink="http://www.w3.org/1999/xlink">
    <!-- Generator: Sketch 3.7.2 (28276) - http://www.bohemiancoding.com/sketch -->
    <title>twitter</title>
    <desc>Created with Sketch.</desc>
    <defs>
        <polyline id="path-1" points="0.00430493274 0.0589775785 19.615426 0.0589775785 19.615426 15.9956951 0.00430493274 15.9956951"></polyline>
    </defs>
    <g id="Website" stroke="none" stroke-width="1" fill="none" fill-rule="evenodd">
        <g id="twitter">
            <g id="TwitterLogo_white" transform="translate(2.000000, 4.000000)">
                <mask id="mask-2" fill="white">
                    <use xlink:href="#path-1"></use>
                </mask>
                <g id="Clip-2"></g>
                <path d="M19.615426,1.94604484 C18.893704,2.26611659 18.1180987,2.48243946 17.3040359,2.57973094 C18.1349596,2.08165022 18.7730224,1.29298655 19.0735067,0.35329148 C18.2959641,0.814421525 17.4346906,1.14934529 16.5180269,1.32986547 C15.7838924,0.547730942 14.738009,0.0589775785 13.5805561,0.0589775785 C11.357991,0.0589775785 9.55608969,1.86080717 9.55608969,4.0832287 C9.55608969,4.39863677 9.59174888,4.70579372 9.66034081,5.00032287 C6.31569507,4.83250224 3.35038565,3.23034978 1.36552466,0.795623318 C1.01912108,1.38999103 0.820663677,2.08129148 0.820663677,2.81879821 C0.820663677,4.21495964 1.53119283,5.44674439 2.61101345,6.16839462 C1.95128251,6.1475157 1.33079821,5.96649327 0.788161435,5.66507623 C0.787874439,5.68186547 0.787874439,5.69872646 0.787874439,5.71565919 C0.787874439,7.66550673 2.17506726,9.29205381 4.01607175,9.66170404 C3.67834978,9.7536861 3.32283408,9.80283408 2.95576682,9.80283408 C2.69646637,9.80283408 2.44434081,9.77765022 2.19867265,9.73065471 C2.71074439,11.3295067 4.19695067,12.4929865 5.95795516,12.5254888 C4.58066368,13.6048072 2.84541704,14.2481794 0.96,14.2481794 C0.635192825,14.2481794 0.314834081,14.2291659 0,14.192 C1.78095067,15.3338117 3.89632287,16 6.16896861,16 C13.571157,16 17.6189417,9.86783857 17.6189417,4.54988341 C17.6189417,4.37539013 17.6150673,4.2018296 17.6073184,4.02927354 C18.3935426,3.46188341 19.0758744,2.75307623 19.615426,1.94604484" id="Fill-1" fill="#666666" mask="url(#mask-2)"></path>
            </g>
        </g>
    </g>
</svg>